<?xml version="1.0" encoding="UTF-8"?>
<svg width="310px" height="310px" viewBox="0 0 310 310" version="1.1" xmlns="http://www.w3.org/2000/svg" xmlns:xlink="http://www.w3.org/1999/xlink">
    <title>safari-pinned-tab</title>
    <g id="safari-pinned-tab" stroke="none" stroke-width="1" fill="none" fill-rule="evenodd">
        <g id="foot-icon">
            <rect id="Rectangle" fill="#2E5F9A" x="0" y="0" width="310" height="310"></rect>
            <path d="M106.638184,62.3058135 C106.574511,44.5977144 97.7453613,11.9131297 97.7453613,11.9131297 C97.7453613,11.9131297 121.459554,10.9922276 136.280924,11.9133538 C151.102295,12.834486 173.975819,20.184368 177.780762,29.6987985 C181.585704,39.2135255 194.825338,225.34071 207.423503,240.162081 C220.021667,254.983451 257.816162,269.804229 254.851888,281.661918 C251.888207,293.518422 242.993606,296.074219 234.101969,296.074219 C225.209147,296.074219 192.602132,275.73337 192.602132,275.73337 C192.602132,275.73337 169.726236,273.463329 157.030843,266.840548 C131.973834,253.77047 133.260329,229.563615 115.531006,207.555066 C93.4437846,180.137309 53.28125,171.983777 53.28125,142.341036 C53.28125,112.698295 95.7672419,116.533473 103.673909,88.9841024 C106.565737,78.9085348 106.675889,72.7884945 106.638184,62.3058135 Z" id="Path" fill="#FFFFFF" fill-rule="nonzero"></path>
        </g>
    </g>
</svg>