<svg width="220" height="48" viewBox="0 0 220 48" fill="none" xmlns="http://www.w3.org/2000/svg">
<path fill-rule="evenodd" clip-rule="evenodd" d="M160.5 0.0690259C160.5 0.0690259 161.989 5.58211 162 8.56903C162.006 10.3372 161.988 11.3695 161.5 13.069C160.873 15.2544 158.956 16.2689 157.1 17.2506C155.011 18.3564 153 19.4205 153 22.069C153 25.1056 155.499 26.8053 158.295 28.7078C160.104 29.938 162.037 31.253 163.5 33.069C164.665 34.5146 165.343 36.0165 165.986 37.4418C166.995 39.6765 167.919 41.7229 170.5 43.069C172.641 44.1861 176.5 44.569 176.5 44.569C176.5 44.569 182 48.0001 183.5 48C185 47.9999 186.5 47.5689 187 45.569C187.295 44.3901 185.201 43.0376 182.997 41.6138C181.461 40.6219 179.872 39.5955 179 38.569C177.589 36.909 176.13 22.5087 175.121 12.5496L175.121 12.5493L175.121 12.5475C174.611 7.50931 174.216 3.60818 174 3.06903C173.358 1.46418 169.5 0.224436 167 0.0690637C164.5 -0.0863076 160.5 0.0690259 160.5 0.0690259ZM220 0H190.5V48H220V41H197.5V28H218.5V21H197.5V7H220V0ZM126.5 0V48H119.5V0H126.5ZM136.431 23.9255L154.9 4.91142e-05L146.3 0L129.2 21.9L129.272 26.1929L147.965 48H157.421L136.431 23.9255ZM78.5 0H85.3608L108 34.4181V0H115V48H108.463L85.5 12.5819V48H78.5V0ZM60.8369 27.5H48.1634L54.5001 10.8433L60.8369 27.5ZM68.9734 48L63.5 34.5H45.5003L40.0269 48H32.4844L51.2289 0H57.7714L76.5159 48H68.9734ZM0.895508 23H30.0002V25H7.10491L21.7136 35.5L7.10491 46H30.0002V48H0.895508L18.2868 35.5L0.895508 23ZM1.53223 2.88379L16.8628 11L1.53223 19.1162L2.468 20.8838L19.2485 12H30.5001V10H19.2485L2.468 1.11621L1.53223 2.88379Z" fill="#2E5F9A"/>
</svg>
